# xmcd
#
# Track frame offsets: 
#        150
#        22379
#        43195
#        59981
#        77492
#        93961
#        116523
#        139837
#        157807
#        176693
#        205473
#        224378
#        244538
#        266259
#        288395
#        308365
#
# Disc length: 4389 seconds
#
# Revision: 2
# Processed by: cddbd v1.5.2PL0 Copyright (c) Steve Scherf et al.
# Submitted via: ExactAudioCopy v1.3
#
DISCID=e4112310
DTITLE=叶凡 - 最爱你中国
DYEAR=2002
DGENRE=Pop
TTITLE0=最爱你中国
TTITLE1=美丽的草原我的家
TTITLE2=拥抱世界杯
TTITLE3=相思
TTITLE4=新水调歌头
TTITLE5=家园
TTITLE6=把你邀进我梦里
TTITLE7=对你的爱
TTITLE8=遇上你是我的缘
TTITLE9=天菩萨
TTITLE10=秋来秋去
TTITLE11=亲爱的中国我爱你
TTITLE12=树
TTITLE13=最爱你中国（伴奏带）
TTITLE14=相思（伴奏带）
TTITLE15=美丽的草原我的家（伴奏带）
EXTD=YEAR: 2002
EXTT0=
EXTT1=
EXTT2=
EXTT3=
EXTT4=
EXTT5=
EXTT6=
EXTT7=
EXTT8=
EXTT9=
EXTT10=
EXTT11=
EXTT12=
EXTT13=
EXTT14=
EXTT15=
PLAYORDER=
